<svg width="79" height="70" viewBox="0 0 79 70" fill="none" xmlns="http://www.w3.org/2000/svg">
<g id="ah">
<path id="mouth" d="M1.36993e-06 29.1033C2.99552e-06 10.5087 17.6848 4.03502e-08 39.5 1.9475e-06C61.3153 3.85465e-06 79 10.5087 79 29.1033C79 47.6979 69.0857 70 39.5 70C9.91434 70 -2.55656e-07 47.6978 1.36993e-06 29.1033Z" fill="black"/>
<g id="mouth_mask_group">
<mask id="mask0_3_13" style="mask-type:alpha" maskUnits="userSpaceOnUse" x="0" y="0" width="79" height="70">
<path id="mouthMask" d="M1.36993e-06 29.1033C2.99552e-06 10.5087 17.6848 4.03502e-08 39.5 1.9475e-06C61.3153 3.85465e-06 79 10.5087 79 29.1033C79 47.6979 69.0857 70 39.5 70C9.91434 70 -2.55656e-07 47.6978 1.36993e-06 29.1033Z" fill="black"/>
</mask>
<g mask="url(#mask0_3_13)">
<rect id="tongue" x="17" y="55" width="46" height="47" rx="23" fill="#905252"/>
<rect id="teeth_top" x="-26" y="-27" width="132" height="47" fill="#D9D9D9"/>
</g>
</g>
</g>
</svg>
