<svg width="79" height="33" viewBox="0 0 79 33" fill="none" xmlns="http://www.w3.org/2000/svg">
<g id="f">
<path id="mouth" d="M8.44067e-06 23.7201C9.20702e-06 14.9541 17.6848 2.26905e-06 39.5 4.17619e-06C61.3153 6.08334e-06 79 14.9541 79 23.7201C79 32.4861 69.0857 33 39.5 33C9.91435 33 7.67432e-06 32.4861 8.44067e-06 23.7201Z" fill="black"/>
<g id="mouth_mask_group">
<mask id="mask0_3_14" style="mask-type:alpha" maskUnits="userSpaceOnUse" x="0" y="0" width="79" height="33">
<path id="mouth_mask" d="M8.11273e-07 23.7201C1.57762e-06 14.9541 17.6848 2.26905e-06 39.5 4.17619e-06C61.3153 6.08334e-06 79 14.9541 79 23.7201C79 32.4861 69.0857 33 39.5 33C9.91434 33 4.49237e-08 32.4861 8.11273e-07 23.7201Z" fill="black"/>
</mask>
<g mask="url(#mask0_3_14)">
<rect id="teeth_top" x="-26" y="-13" width="132" height="47" fill="#D9D9D9"/>
</g>
</g>
</g>
</svg>
