<svg width="251" height="184" viewBox="0 0 251 184" fill="none" xmlns="http://www.w3.org/2000/svg">
<g id="h1ro">
<path id="head" d="M251 107.5C251 156.377 194.812 184 125.5 184C56.1883 184 0 156.377 0 107.5C0 58.6228 31.5 7.68508e-10 125.5 3.84702e-10C219.5 0 251 58.6228 251 107.5Z" fill="#D9D9D9"/>
<path id="eye_right" d="M82 93C82 101.837 74.8366 109 66 109C57.1634 109 50 101.837 50 93C50 84.1634 57.1634 77 66 77C74.8366 77 82 84.1634 82 93Z" fill="black"/>
<path id="eye_left" d="M197 93C197 101.837 189.837 109 181 109C172.163 109 165 101.837 165 93C165 84.1634 172.163 77 181 77C189.837 77 197 84.1634 197 93Z" fill="black"/>
</g>
</svg>
