<svg width="73" height="37" viewBox="0 0 73 37" fill="none" xmlns="http://www.w3.org/2000/svg">
<g id="s">
<path id="mouth" d="M3.18715e-06 17.7449C2.79983e-06 3.14894 16.3416 2.01968e-07 36.5 1.77114e-06C56.6584 3.34032e-06 73 3.54255 73 17.7449C73 31.9472 63.8386 37 36.5 37C9.16134 37 3.57446e-06 32.3408 3.18715e-06 17.7449Z" fill="black"/>
<g id="mouth_mask_group">
<mask id="mask0_3_66" style="mask-type:alpha" maskUnits="userSpaceOnUse" x="0" y="0" width="73" height="37">
<path id="mouth_mask" d="M1.89052e-06 17.7449C1.5032e-06 3.14894 16.3416 -5.9572e-07 36.5 9.73455e-07C56.6584 2.54263e-06 73 3.54256 73 17.7449C73 31.9472 63.8386 37 36.5 37C9.16134 37 2.27783e-06 32.3408 1.89052e-06 17.7449Z" fill="black"/>
</mask>
<g mask="url(#mask0_3_66)">
<rect id="teeth_bottom" x="-29" y="20" width="132" height="47" fill="#D9D9D9"/>
<rect id="teeth_top" x="-29" y="-30" width="132" height="47" fill="#D9D9D9"/>
</g>
</g>
</g>
</svg>
