<svg width="57" height="51" viewBox="0 0 57 51" fill="none" xmlns="http://www.w3.org/2000/svg">
<g id="uh">
<path id="mouth" d="M-3.26502e-06 24.1181C-1.89597e-06 10.5706 12.7599 -1.00592e-06 28.5 1.84484e-07C44.2401 1.37489e-06 57 10.5706 57 24.1181C57 37.6656 49.8466 51 28.5 51C7.15338 51 -4.63407e-06 37.6656 -3.26502e-06 24.1181Z" fill="black"/>
<g id="mouth_mask_group">
<mask id="mask0_3_73" style="mask-type:alpha" maskUnits="userSpaceOnUse" x="0" y="0" width="57" height="51">
<path id="mouth_mask" d="M-3.26502e-06 24.1181C-1.89597e-06 10.5706 12.7599 -1.00592e-06 28.5 1.84484e-07C44.2401 1.37489e-06 57 10.5706 57 24.1181C57 37.6656 49.8466 51 28.5 51C7.15338 51 -4.63407e-06 37.6656 -3.26502e-06 24.1181Z" fill="black"/>
</mask>
<g mask="url(#mask0_3_73)">
<rect id="tongue" x="6.00003" y="33" width="46" height="47" rx="23" fill="#905252"/>
<rect id="teeth_top" x="-37" y="-29" width="132" height="47" fill="#D9D9D9"/>
</g>
</g>
</g>
</svg>
